<svg width="128" height="128" viewBox="0 0 128 128" fill="none" xmlns="http://www.w3.org/2000/svg">
<g clip-path="url(#clip0_85_3)">
<path d="M14.7273 110V97.1818L59.9545 35.1818H14.7727V16.9091H88.4091V29.7273L43.1818 91.7273H88.3636V110H14.7273Z" fill="#61C0BF"/>
<path d="M109.55 111.318C106.278 111.318 103.475 110.167 101.141 107.864C98.8383 105.561 97.702 102.773 97.7323 99.5C97.702 96.2879 98.8383 93.5455 101.141 91.2727C103.475 88.9697 106.278 87.8182 109.55 87.8182C112.641 87.8182 115.369 88.9697 117.732 91.2727C120.126 93.5455 121.338 96.2879 121.369 99.5C121.338 101.682 120.763 103.667 119.641 105.455C118.55 107.242 117.111 108.667 115.323 109.727C113.566 110.788 111.641 111.318 109.55 111.318Z" fill="#FF7F50"/>
</g>
<defs>
<clipPath id="clip0_85_3">
<rect width="128" height="128" fill="white"/>
</clipPath>
</defs>
</svg>
